<?xml version="1.0" encoding="utf-8"?>
<!-- Generator: Adobe Illustrator 23.0.3, SVG Export Plug-In . SVG Version: 6.00 Build 0)  -->
<svg version="1.1" id="Layer_1" xmlns="http://www.w3.org/2000/svg" xmlns:xlink="http://www.w3.org/1999/xlink" x="0px" y="0px"
	 viewBox="0 0 277.17 416.68" style="enable-background:new 0 0 277.17 416.68;" xml:space="preserve">
<style type="text/css">
	.st0{fill:#413279;}
	.st1{fill:#9653A1;}
	.st2{fill:#7695CD;}
	.st3{fill:#622B84;}
	.st4{fill:#FFFFFF;}
</style>
<g>
	<g>
		<g>
			<path class="st1" d="M108.02,313.78c-56.16,0-101.86-45.69-101.86-101.86s45.69-101.86,101.86-101.86s101.86,45.69,101.86,101.86
				S164.18,313.78,108.02,313.78z M108.02,168.19c-24.12,0-43.73,19.62-43.73,43.73s19.62,43.74,43.73,43.74
				s43.74-19.62,43.74-43.74S132.14,168.19,108.02,168.19z"/>
		</g>
		<path class="st1" d="M193.31,95.5c-6.23,2.03-12.93-1.38-14.95-7.61s1.38-12.93,7.61-14.95c6.23-2.03,12.93,1.38,14.95,7.61
			C202.95,86.78,199.54,93.47,193.31,95.5z M169.42,44.89c-3.62,3.04-4.1,8.44-1.06,12.06s8.44,4.1,12.06,1.06
			c3.62-3.04,4.1-8.44,1.06-12.06C178.44,42.32,173.04,41.85,169.42,44.89z M189.16,114.17c-10.9,2.34-17.85,13.08-15.5,23.98
			s13.08,17.85,23.98,15.5c10.9-2.34,17.85-13.08,15.5-23.98S200.07,111.83,189.16,114.17z M224.92,52.8
			c-1.4,2.17-0.78,5.06,1.39,6.46s5.06,0.78,6.46-1.39s0.78-5.06-1.39-6.46C229.21,50.01,226.32,50.63,224.92,52.8z M194.76,28.76
			c3.22,2.08,7.51,1.16,9.59-2.06c2.08-3.22,1.16-7.51-2.06-9.59s-7.51-1.16-9.59,2.06S191.55,26.68,194.76,28.76z M227.84,84.28
			c-4.29,0.92-7.02,5.14-6.1,9.43s5.14,7.02,9.43,6.1s7.02-5.14,6.1-9.43C236.35,86.09,232.13,83.36,227.84,84.28z"/>
		<g>
			<g>
				<path class="st0" d="M151.72,213.69c-0.02,0.44-0.04,0.89-0.07,1.33c0,0.03,0,0.05-0.01,0.08c-0.07,1.03-0.19,2.06-0.33,3.07
					l0,0c3.56-7.36,7.17-16.61,7.17-24.78c0-42.85-37.55-65.54-69.35-65.54c-56.02,0-79.35,36.44-82.44,75
					c-0.27,1.76-0.43,3.52-0.43,5.26c0,11.39,0.01,33.31,0.01,58.01c1.9,51.09,32.4,99.49,65.06,89.8
					c5.8-12.07,6.32-26.46,4.18-42.15c-4.4-32.27-13.6-70.16-11.12-99.21c-0.05-0.88-0.08-1.76-0.08-2.65
					c0-24.15,19.58-43.74,43.74-43.74c0.72,0,1.43,0.02,2.14,0.05c0.27-0.01,0.55-0.03,0.82-0.04c0.86,0.12,1.71,0.2,2.57,0.34l0,0
					c0.11,0.01,0.21,0.03,0.32,0.04c0.23,0.03,0.46,0.06,0.68,0.1c0.16,0.02,0.31,0.05,0.47,0.07c0.17,0.03,0.34,0.06,0.51,0.09
					c0.18,0.03,0.36,0.06,0.53,0.1c0.14,0.03,0.28,0.05,0.42,0.08c0.2,0.04,0.4,0.08,0.6,0.12c0.1,0.02,0.2,0.04,0.3,0.07
					c1.12,0.25,2.23,0.53,3.32,0.86c5.28,1.48,9.84,3.75,14.43,7.55c0.3,0.24,0.6,0.48,0.9,0.73c0.04,0.04,0.08,0.07,0.13,0.11
					c0.26,0.22,0.51,0.44,0.77,0.66c0.05,0.04,0.1,0.08,0.14,0.13c0.25,0.23,0.51,0.46,0.76,0.69c0.04,0.03,0.07,0.07,0.11,0.1
					c1.46,1.37,2.82,2.84,4.08,4.39c3.85,4.59,6.53,9.61,8.04,15.42c0.13,0.46,0.26,0.92,0.37,1.39c0.01,0.06,0.03,0.12,0.04,0.18
					c0.1,0.4,0.19,0.81,0.28,1.21c0.02,0.08,0.03,0.15,0.05,0.22c0.19,0.91,0.36,1.83,0.49,2.76c0.02,0.11,0.03,0.21,0.04,0.32
					c0.05,0.39,0.1,0.79,0.15,1.19c0.01,0.07,0.02,0.15,0.03,0.22c0.05,0.46,0.09,0.92,0.12,1.39c0.01,0.1,0.01,0.2,0.02,0.3
					c0.02,0.37,0.04,0.74,0.06,1.12c0.01,0.13,0.01,0.26,0.01,0.39c0.01,0.47,0.02,0.93,0.02,1.4c0,0.48-0.01,0.96-0.03,1.44
					C151.73,213.47,151.72,213.58,151.72,213.69z"/>
			</g>
		</g>
		<path class="st2" d="M6.26,266.13c0.01,47.03,0,104.15-0.09,117.94c-0.02,3.47,0.95,4.55,4.45,4.49
			c26.28-0.43,44.96-8.26,57.52-26.99c1.22-1.82,2.27-3.7,3.2-5.64C38.68,365.64,8.16,317.23,6.26,266.13z"/>
		<g>
			<g>
				<g>
					<g>
						<path class="st3" d="M120.6,342.83c-8.84,0-14.9,6.65-14.9,15.39v48.39c0,0.5,0.4,0.79,0.89,0.79h2.68
							c0.5,0,0.89-0.3,0.89-0.79v-24.03c2.38,3.57,6.06,5.86,11.02,5.86c8.14,0,14.2-6.65,14.2-15.39v-14.83
							C135.4,349.48,129.34,342.83,120.6,342.83z M131.03,373.05c0,6.46-4.17,11.12-10.43,11.12c-6.36,0-10.43-4.67-10.43-11.12
							v-14.83c0-6.46,4.07-11.12,10.43-11.12c6.26,0,10.43,4.67,10.43,11.12V373.05z"/>
						<path class="st3" d="M161.96,342.94c-2.5-0.28-5.06-0.4-9.27,1.63c-4.84,2.34-7.56,7.58-7.56,13.64v14.83
							c0,8.74,5.86,15.39,14.9,15.39c9.14,0,14.9-6.65,14.9-15.39v-14.83C174.92,350.12,169.97,343.82,161.96,342.94z
							 M170.45,373.05c0,6.46-3.87,11.22-10.43,11.22c-6.46,0-10.43-4.77-10.43-11.22v-14.83c0-6.46,3.97-11.22,10.43-11.22
							c6.55,0,10.43,4.77,10.43,11.22V373.05z"/>
						<path class="st3" d="M190.21,323.86h-2.78c-0.5,0-0.79,0.3-0.79,0.79v62.1c0,0.5,0.3,0.79,0.79,0.79h2.78
							c0.5,0,0.79-0.3,0.79-0.79v-62.1C191.01,324.16,190.71,323.86,190.21,323.86z"/>
					</g>
					<g>
						<path class="st3" d="M242.21,386.7v-28.23c0-9.04,5.56-15.69,14.4-15.69c8.84,0,14.4,6.65,14.4,15.69v28.23
							c0,0.5-0.4,0.79-0.89,0.79h-2.68c-0.5,0-0.89-0.3-0.89-0.79v-28.23c0-6.85-3.48-11.52-9.93-11.52
							c-6.46,0-9.93,4.67-9.93,11.52v28.23c0,0.5-0.4,0.79-0.89,0.79h-2.68C242.61,387.5,242.21,387.2,242.21,386.7z"/>
					</g>
				</g>
				<path class="st3" d="M245.78,344.09H243c-0.5,0-0.79,0.3-0.79,0.79v31.05c0,0.5,0.3,0.79,0.79,0.79h2.78
					c0.5,0,0.79-0.3,0.79-0.79v-31.05C246.58,344.39,246.28,344.09,245.78,344.09z"/>
				<path class="st3" d="M226.29,377.56c-1.4,4.01-4.67,6.61-9.46,6.61c-6.5,0-10.05-4.55-10.21-10.68h9.62
					c9.73,0,15.49-3.83,15.49-12.07c0-8.44-5.96-15-14.8-15c-9.04,0-14.8,6.46-14.8,15.39v11.23c0,8.94,5.56,15.29,14.7,15.29
					c7.32,0,12.38-4.29,14.07-10.78H226.29z M206.6,361.82c0-6.65,3.77-11.22,10.33-11.22c6.36,0,10.33,4.67,10.33,10.82
					c0,5.86-3.77,7.8-11.02,7.8h-9.63V361.82z"/>
			</g>
		</g>
		<circle class="st1" cx="129.62" cy="84.22" r="16"/>
	</g>
	<circle class="st1" cx="237.39" cy="13.24" r="3.97"/>
</g>
</svg>
